<svg xmlns="http://www.w3.org/2000/svg" viewBox="0 0 256 256" width="256" height="256" role="img" aria-label="Speed">
	<defs>
		<radialGradient id="bg" cx="50%" cy="42%" r="75%">
			<stop offset="0%" stop-color="#07131A"/>
			<stop offset="70%" stop-color="#051119"/>
			<stop offset="100%" stop-color="#03080D"/>
		</radialGradient>
		<linearGradient id="bevel" x1="0%" y1="0%" x2="0%" y2="100%">
			<stop offset="0%" stop-color="#124255"/>
			<stop offset="100%" stop-color="#0B2C3A"/>
		</linearGradient>
			<linearGradient id="cy" x1="0%" y1="0%" x2="0%" y2="100%">
				<stop offset="0%" stop-color="#1BB6C8"/>
				<stop offset="100%" stop-color="#0E8396"/>
			</linearGradient>
			<!-- Beveled arrow fill -->
			<linearGradient id="arrowFill" x1="0%" y1="0%" x2="0%" y2="100%">
				<stop offset="0%" stop-color="#28AFC1"/>
				<stop offset="60%" stop-color="#13879A"/>
				<stop offset="100%" stop-color="#0A6675"/>
			</linearGradient>
			<!-- Edge gloss highlight -->
			<linearGradient id="edgeGloss" x1="0" y1="0" x2="0" y2="1">
				<stop offset="0" stop-color="#FFFFFF" stop-opacity="0.35"/>
				<stop offset="1" stop-color="#FFFFFF" stop-opacity="0"/>
			</linearGradient>
		<filter id="lift" x="-20%" y="-20%" width="160%" height="160%">
			<feDropShadow dx="0" dy="4" stdDeviation="6" flood-color="#051E27" flood-opacity="0.85"/>
		</filter>
		<filter id="glow" x="-40%" y="-40%" width="180%" height="180%">
			<feGaussianBlur stdDeviation="2" result="b"/>
			<feMerge><feMergeNode in="b"/><feMergeNode in="SourceGraphic"/></feMerge>
		</filter>
	</defs>

	<!-- Background + bevel -->
	<rect width="256" height="256" rx="22" fill="url(#bg)"/>
	<rect x="10" y="10" width="236" height="236" rx="18" fill="none" stroke="url(#bevel)" stroke-width="3"/>
	<rect x="10" y="10" width="236" height="236" rx="18" fill="none" stroke="#163E4F" stroke-width="1" opacity="0.55"/>

		<!-- Three right-pointing arrows (beveled + rim + gloss) -->
			<!-- Dark rim for separation -->
			<g filter="url(#lift)" fill="none" stroke="#081C25" stroke-opacity="0.6" stroke-width="4" stroke-linejoin="round">
				<!-- top curvy-notched arrow -->
				<path d="M48 82 C86 78, 124 78, 156 84 L156 72 L200 92 L156 112 L156 100 C124 106, 86 106, 48 102 L64 92 Z"/>
				<!-- middle -->
				<path d="M48 118 C86 114, 124 114, 156 120 L156 108 L200 128 L156 148 L156 136 C124 142, 86 142, 48 138 L64 128 Z"/>
				<!-- bottom -->
				<path d="M48 154 C86 150, 124 150, 156 156 L156 144 L200 164 L156 184 L156 172 C124 178, 86 178, 48 174 L64 164 Z"/>
			</g>

			<!-- Filled arrows -->
			<g filter="url(#lift)" fill="url(#arrowFill)" stroke="#BFEAF2" stroke-width="2" stroke-linejoin="round">
				<!-- top curvy-notched arrow -->
				<path d="M48 82 C86 78, 124 78, 156 84 L156 72 L200 92 L156 112 L156 100 C124 106, 86 106, 48 102 L64 92 Z" opacity="1"/>
				<!-- middle -->
				<path d="M48 118 C86 114, 124 114, 156 120 L156 108 L200 128 L156 148 L156 136 C124 142, 86 142, 48 138 L64 128 Z" opacity="0.9"/>
				<!-- bottom -->
				<path d="M48 154 C86 150, 124 150, 156 156 L156 144 L200 164 L156 184 L156 172 C124 178, 86 178, 48 174 L64 164 Z" opacity="0.85"/>
			</g>

		<!-- Edge gloss on top edges -->
			<g fill="none" stroke="url(#edgeGloss)" stroke-linecap="round">
				<!-- top-edge gloss following curvature -->
				<path d="M54 82 C92 78, 128 78, 154 84" stroke-width="3"/>
				<path d="M54 118 C92 114, 128 114, 154 120" stroke-width="3" opacity="0.85"/>
				<path d="M54 154 C92 150, 128 150, 154 156" stroke-width="3" opacity="0.7"/>
				<!-- head upper edges -->
				<path d="M156 72 L196 92" stroke-width="2.5" opacity="0.8"/>
				<path d="M156 108 L196 128" stroke-width="2.5" opacity="0.65"/>
				<path d="M156 144 L196 164" stroke-width="2.5" opacity="0.5"/>
			</g>

		<!-- Soft glow accents behind arrows and forward motion lines -->
		<g fill="none" stroke="url(#cy)" stroke-linecap="round" filter="url(#glow)">
			<!-- trailing glow -->
			<path d="M36 92 H120" stroke-width="6" opacity="0.28"/>
			<path d="M36 128 H116" stroke-width="5" opacity="0.25"/>
			<path d="M36 164 H112" stroke-width="4" opacity="0.22"/>
			<!-- forward streaks -->
			<path d="M194 92 H220" stroke-width="4" opacity="0.28"/>
			<path d="M194 128 H220" stroke-width="3.5" opacity="0.25"/>
			<path d="M194 164 H220" stroke-width="3" opacity="0.22"/>
	</g>
</svg>
