<svg xmlns="http://www.w3.org/2000/svg" viewBox="0 0 256 256" width="256" height="256" role="img" aria-label="AOE On Kill">
  <defs>
    <radialGradient id="bg" cx="50%" cy="45%" r="70%">
      <stop offset="0%" stop-color="#071118"/>
      <stop offset="70%" stop-color="#041018"/>
      <stop offset="100%" stop-color="#02070B"/>
    </radialGradient>
    <linearGradient id="cy" x1="0%" y1="0%" x2="0%" y2="100%">
      <stop offset="0%" stop-color="#D6F8FF"/>
      <stop offset="100%" stop-color="#33E6FF"/>
    </linearGradient>
    <filter id="g" x="-40%" y="-40%" width="180%" height="180%">
      <feGaussianBlur stdDeviation="2" result="b"/>
      <feMerge><feMergeNode in="b"/><feMergeNode in="SourceGraphic"/></feMerge>
    </filter>
  </defs>
  <rect width="256" height="256" rx="20" fill="url(#bg)"/>
  <rect x="10" y="10" width="236" height="236" rx="16" fill="none" stroke="#0C2A36" stroke-width="3"/>
  <rect x="10" y="10" width="236" height="236" rx="16" fill="none" stroke="#143D4E" stroke-width="1" opacity="0.6"/>

  <!-- shockwaves -->
  <g fill="none" stroke-linecap="round" filter="url(#g)">
    <circle cx="128" cy="128" r="86" stroke="url(#cy)" stroke-width="6"/>
    <circle cx="128" cy="128" r="60" stroke="#CFF7FF" stroke-opacity="0.85" stroke-width="5"/>
    <circle cx="128" cy="128" r="36" stroke="#BDEEFF" stroke-opacity="0.6" stroke-width="4"/>
  </g>
  <!-- skull spark -->
  <g fill="#CFF7FF" opacity="0.95" transform="translate(0,-2)">
    <path d="M128 104c-12 0-20 8.8-20 19.2 0 6 2.8 11.6 7.6 15.2v10.8c0 2.8 2.4 4.8 5.2 4.8h14.4c2.8 0 5.2-2 5.2-4.8v-10.8c4.8-3.6 7.6-9.2 7.6-15.2 0-10.4-8-19.2-20-19.2zM112.8 152.4h9.6v7.2h-9.6zM133.6 152.4h9.6v7.2h-9.6z"/>
  </g>
</svg>
