<svg xmlns="http://www.w3.org/2000/svg" viewBox="0 0 256 256" width="256" height="256" role="img" aria-label="Damage">
  <defs>
    <radialGradient id="bg" cx="50%" cy="42%" r="75%">
      <stop offset="0%" stop-color="#07131A"/>
      <stop offset="70%" stop-color="#051119"/>
      <stop offset="100%" stop-color="#03080D"/>
    </radialGradient>
    <linearGradient id="bevel" x1="0%" y1="0%" x2="0%" y2="100%">
      <stop offset="0%" stop-color="#124255"/>
      <stop offset="100%" stop-color="#0B2C3A"/>
    </linearGradient>
    <linearGradient id="cy" x1="0%" y1="0%" x2="0%" y2="100%">
      <stop offset="0%" stop-color="#BDF6FF"/>
      <stop offset="60%" stop-color="#5FD7EA"/>
      <stop offset="100%" stop-color="#2B5D6D"/>
    </linearGradient>
    <filter id="lift" x="-20%" y="-20%" width="160%" height="160%">
      <feDropShadow dx="0" dy="4" stdDeviation="6" flood-color="#051E27" flood-opacity="0.85"/>
    </filter>
    <filter id="glow" x="-40%" y="-40%" width="180%" height="180%">
      <feGaussianBlur stdDeviation="2.2" result="b"/>
      <feMerge><feMergeNode in="b"/><feMergeNode in="SourceGraphic"/></feMerge>
    </filter>
    <linearGradient id="steel" x1="0" y1="0" x2="1" y2="1">
      <stop offset="0%" stop-color="#E7FCFF"/>
      <stop offset="100%" stop-color="#8ED6E8"/>
    </linearGradient>
  </defs>
  <rect width="256" height="256" rx="22" fill="url(#bg)"/>
  <rect x="10" y="10" width="236" height="236" rx="18" fill="none" stroke="url(#bevel)" stroke-width="3"/>
  <rect x="10" y="10" width="236" height="236" rx="18" fill="none" stroke="#163E4F" stroke-width="1" opacity="0.55"/>
  <!-- Crossed energy blades indicating damage output -->
  <g filter="url(#lift)" stroke-linejoin="round" stroke-linecap="round">
    <!-- Left blade -->
    <path d="M88 64 L116 92 L92 116 L64 88 Z" fill="url(#steel)" stroke="#E5FAFF" stroke-width="2"/>
    <path d="M64 88 L92 116 L80 160 L52 132 Z" fill="#1A3A47" stroke="#CFF7FF" stroke-width="2"/>
    <!-- Right blade -->
    <path d="M168 64 L192 88 L164 116 L140 92 Z" fill="url(#steel)" stroke="#E5FAFF" stroke-width="2"/>
    <path d="M164 116 L192 88 L204 132 L176 160 Z" fill="#1A3A47" stroke="#CFF7FF" stroke-width="2"/>
    <!-- Central impact burst -->
    <g filter="url(#glow)">
      <circle cx="128" cy="128" r="12" fill="url(#cy)" stroke="#E7FCFF" stroke-width="2"/>
      <path d="M128 100 v-18 M128 156 v18 M100 128 h-18 M156 128 h18 M110 110 l-12 -12 M146 146 l12 12 M110 146 l-12 12 M146 110 l12 -12" stroke="#BDF6FF" stroke-width="4" stroke-linecap="round"/>
    </g>
  </g>
</svg>

