<svg xmlns="http://www.w3.org/2000/svg" viewBox="0 0 256 256" width="256" height="256" role="img" aria-label="Overclock">
	<defs>
		<!-- Unified background + frame style -->
		<radialGradient id="bg" cx="50%" cy="42%" r="75%">
			<stop offset="0%" stop-color="#07131A"/>
			<stop offset="70%" stop-color="#051119"/>
			<stop offset="100%" stop-color="#03080D"/>
		</radialGradient>
		<linearGradient id="bevel" x1="0%" y1="0%" x2="0%" y2="100%">
			<stop offset="0%" stop-color="#124255"/>
			<stop offset="100%" stop-color="#0B2C3A"/>
		</linearGradient>
		<linearGradient id="cy" x1="0%" y1="0%" x2="0%" y2="100%">
			<stop offset="0%" stop-color="#33E6FF"/>
			<stop offset="100%" stop-color="#10D7F4"/>
		</linearGradient>
		<linearGradient id="chipFill" x1="0%" y1="0%" x2="0%" y2="100%">
			<stop offset="0%" stop-color="#112F3E"/>
			<stop offset="100%" stop-color="#0A1F29"/>
		</linearGradient>
		<linearGradient id="arrowGrad" x1="0%" y1="0%" x2="100%" y2="0%">
			<stop offset="0%" stop-color="#BDF6FF"/>
			<stop offset="100%" stop-color="#2FD6F0"/>
		</linearGradient>
		<filter id="lift" x="-20%" y="-20%" width="160%" height="160%">
			<feDropShadow dx="0" dy="4" stdDeviation="6" flood-color="#051E27" flood-opacity="0.85"/>
		</filter>
		<filter id="glow" x="-40%" y="-40%" width="180%" height="180%">
			<feGaussianBlur stdDeviation="2.2" result="b"/>
			<feMerge><feMergeNode in="b"/><feMergeNode in="SourceGraphic"/></feMerge>
		</filter>
	</defs>

	<!-- Background and beveled frame -->
	<rect width="256" height="256" rx="22" fill="url(#bg)"/>
	<rect x="10" y="10" width="236" height="236" rx="18" fill="none" stroke="url(#bevel)" stroke-width="3"/>
	<rect x="10" y="10" width="236" height="236" rx="18" fill="none" stroke="#163E4F" stroke-width="1" opacity="0.55"/>

	<!-- Microchip body with pins -->
	<g filter="url(#lift)" stroke-linecap="round" stroke-linejoin="round">
		<rect x="44" y="52" width="168" height="136" rx="14" fill="url(#chipFill)" stroke="#CFF7FF" stroke-width="3"/>
		<!-- Pins top -->
		<g stroke="#BDF6FF" stroke-width="6">
			<path d="M68 46 v16"/>
			<path d="M92 46 v16"/>
			<path d="M116 46 v16"/>
			<path d="M140 46 v16"/>
			<path d="M164 46 v16"/>
			<path d="M188 46 v16"/>
			<!-- Pins bottom -->
			<path d="M68 188 v16"/>
			<path d="M92 188 v16"/>
			<path d="M116 188 v16"/>
			<path d="M140 188 v16"/>
			<path d="M164 188 v16"/>
			<path d="M188 188 v16"/>
		</g>

		<!-- Square-wave clock trace across chip -->
		<path d="M60 132 H92 V100 H124 V132 H156 V100 H188 V132 H212" stroke="url(#cy)" stroke-width="10" fill="none" filter="url(#glow)"/>

		<!-- Turbo arrow overlay (overclock boost) -->
		<g filter="url(#glow)">
			<path d="M84 168 L136 116 L132 140 L172 108 L160 152 L184 148 Z" fill="url(#arrowGrad)" stroke="#E5FAFF" stroke-width="2"/>
			<!-- Motion accents -->
			<path d="M120 168 l-18 10" stroke="#CFF7FF" stroke-opacity="0.6" stroke-width="4"/>
			<path d="M102 178 l-14 8" stroke="#CFF7FF" stroke-opacity="0.4" stroke-width="3"/>
		</g>
	</g>
</svg>

