<svg xmlns="http://www.w3.org/2000/svg" viewBox="0 0 256 256" width="256" height="256" role="img" aria-label="Burn Damage">
  <defs>
    <radialGradient id="bg" cx="50%" cy="42%" r="75%">
      <stop offset="0%" stop-color="#07131A"/>
      <stop offset="70%" stop-color="#051119"/>
      <stop offset="100%" stop-color="#03080D"/>
    </radialGradient>
    <linearGradient id="bevel" x1="0%" y1="0%" x2="0%" y2="100%">
      <stop offset="0%" stop-color="#124255"/>
      <stop offset="100%" stop-color="#0B2C3A"/>
    </linearGradient>
    <linearGradient id="flame" x1="0%" y1="0%" x2="0%" y2="100%">
      <stop offset="0%" stop-color="#BFF7FF"/>
      <stop offset="60%" stop-color="#66DAEC"/>
      <stop offset="100%" stop-color="#2B5D6D"/>
    </linearGradient>
    <filter id="lift" x="-20%" y="-20%" width="160%" height="160%">
      <feDropShadow dx="0" dy="4" stdDeviation="6" flood-color="#051E27" flood-opacity="0.85"/>
    </filter>
    <filter id="glow" x="-40%" y="-40%" width="180%" height="180%">
      <feGaussianBlur stdDeviation="2.2" result="b"/>
      <feMerge><feMergeNode in="b"/><feMergeNode in="SourceGraphic"/></feMerge>
    </filter>
  </defs>
  <rect width="256" height="256" rx="22" fill="url(#bg)"/>
  <rect x="10" y="10" width="236" height="236" rx="18" fill="none" stroke="url(#bevel)" stroke-width="3"/>
  <rect x="10" y="10" width="236" height="236" rx="18" fill="none" stroke="#163E4F" stroke-width="1" opacity="0.55"/>
  <!-- Cyan plasma flame -->
  <g filter="url(#lift)">
    <path d="M132 200 c-34 -10 -52 -32 -48 -62 4 -26 24 -42 38 -64 6 22 20 36 36 44 18 8 30 30 20 50 -10 24 -34 34 -46 32 z" fill="url(#flame)" stroke="#E5FAFF" stroke-width="3"/>
    <g filter="url(#glow)" opacity="0.85">
      <path d="M118 170 c-10 -12 -6 -26 8 -34 10 18 12 28 -8 34 z" fill="#E7FCFF" opacity="0.5"/>
      <path d="M144 162 c8 -8 12 -18 8 -28 10 6 16 18 12 28 -4 10 -10 16 -20 20 -6 2 -4 -8 0 -20 z" fill="#BDF6FF" opacity="0.45"/>
    </g>
  </g>
</svg>

